<svg xmlns="http://www.w3.org/2000/svg" fill="none" viewBox="0 0 26 26">
  <path fill="#0B4367" d="M24.727 17.052s-1.474 5.019-6.267 6.91c0 0 2.383-4.178 2.402-4.301.02-.124 3.41-3.203 3.865-2.61zM11.72 25.024s2.157-.06 3.394-.633a7.266 7.266 0 0 1 2.274-.65s-2.575 1.184-2.832 1.47c-.257.286-3.853.102-2.878-.187"/>
  <path fill="#0B4367" d="M5.739 22.718s.485.485 5.037.395c4.782-.092 6.614.628 6.614.628s-4.153.301-5.244.485c-1.09.185-5.178.485-6.129-.882-.95-1.368-.278-.626-.278-.626zM1.295 7.421s.014 1.256 3.513 1.986c3.498.73 9.137 2.015 12.435 4.284 3.297 2.27 3.69 4.292 3.607 5.058-.082.766-2.044 3.152-2.044 3.152s-.242-2.274-2.667-3.736c-2.424-1.462-5.333-2.91-7.516-3.252-.778-.118-2.744-.875-4.443-1.508-3.087-1.14-5.911-2.686-2.885-5.984zM6.55 1.2s5.882-3.01 11.808-.192c5.925 2.817 8.085 9.408 7.181 13.578 0 0-.453-8.275-8.6-11.711C12.042.807 6.551 1.2 6.551 1.2z"/>
  <path fill="#0B4367" d="M4.887 2.414a.546.546 0 0 1 .594.204c.02.02.044.034.07.044.77.312 7.128.092 12.676 3.295 5.547 3.203 6.856 6.946 6.505 11.027a.526.526 0 0 1-.03.136c-.157.42-1.047 2.681-2.058 3.44-1.113.834-.046-5.2-4.06-8.65C14.567 8.458 10.2 7.06 4.847 5.485c-3.34-.984-1.823-2.33-.063-3.033l.102-.039z"/>
  <path fill="#9CC6CE" d="M6.55 1.2s8.486-4.34 14.467 1.837l1.133 1.295s-3.11-3.006-6.789-3.83c-3.678-.825-8.81.698-8.81.698z"/>
  <path fill="#0B4367" d="M.679 15.29s.138 1.51 6.5 2.53c6.361 1.021 10.631 2.112 10.723 5.318l-.325.671s-2.369-1.973-5.5-2.204C8.942 21.375-1.13 20.515.678 15.29z"/>
  <path fill="#2EA5C2" d="M8.594 1.709s2.667 0 2.197 2.694c-.47 2.693-1.712 6.379-6.716 13.805-.97 1.424-1.423 3.839 2.384 5.601 0 0-.745-1.925.279-3.76C7.76 18.213 13.792 6.073 12.284 3.56c-1.508-2.51-3.69-1.85-3.69-1.85z"/>
  <path fill="#2EA5C2" d="M7.964 1.408s.352.97-1.32 3.065C4.97 6.568 5.018 7.14 2.557 9.579.097 12.02-.691 14.152.725 17.73c0 0 .511-3.182 2.274-5.713S9.68 2.824 7.964 1.408zm-.785.226s-1.394 1.561-2.91 2.398C2.754 4.868-.049 7.63.114 9.974c0 0-.197-1.387 2.924-3.947 4.14-3.39 4.14-4.393 4.14-4.393zM9.5.943s6.29-.835 7.381 3.76c1.091 4.595-1.939 10.007-3.435 13.117-1.496 3.111-4.018 6.477-3.552 7.36 0 0 2.066.44 2.807-.117.742-.558.7-2.32 2.578-4.922 1.88-2.602 4.121-9.308 3.714-12.652C18.586 4.145 17.09-.31 9.5.943z"/>
  <path fill="#2EA5C2" d="M20.384 2.359s3.926 3.46 2.694 9.38c-1.232 5.921-5.409 12.165-7.383 13.186 0 0 2.161 1.275 6.2-5.247 4.04-6.523 3.295-13.537-1.51-17.32z"/>
</svg>
