<svg viewBox="0 0 147 26" fill="none" xmlns="http://www.w3.org/2000/svg">
  <path d="M117.18 17.334s-1.474 5.019-6.267 6.91c0 0 2.383-4.178 2.402-4.302.02-.123 3.409-3.203 3.865-2.608ZM104.172 25.306s2.158-.06 3.395-.633a7.266 7.266 0 0 1 2.274-.65s-2.575 1.183-2.832 1.47c-.257.286-3.853.101-2.878-.187" fill="#0B4367"/>
  <path d="M98.191 23s.485.485 5.038.395c4.782-.092 6.614.628 6.614.628s-4.153.3-5.244.485c-1.091.184-5.178.485-6.129-.882-.95-1.368-.279-.626-.279-.626ZM93.747 7.703s.015 1.256 3.513 1.986c3.499.73 9.138 2.014 12.436 4.284 3.297 2.27 3.69 4.292 3.607 5.058-.082.766-2.044 3.152-2.044 3.152s-.242-2.274-2.667-3.737c-2.424-1.462-5.333-2.91-7.516-3.251-.778-.119-2.744-.875-4.444-1.508-3.086-1.14-5.91-2.687-2.885-5.984ZM99.003 1.481s5.882-3.009 11.808-.191c5.925 2.817 8.085 9.407 7.181 13.578 0 0-.453-8.276-8.6-11.711-4.897-2.069-10.389-1.676-10.389-1.676Z" fill="#0B4367"/>
  <path d="M97.34 2.696a.546.546 0 0 1 .594.204c.02.02.044.034.07.043.769.313 7.128.092 12.676 3.295 5.547 3.203 6.856 6.947 6.505 11.028a.527.527 0 0 1-.03.135c-.157.42-1.047 2.682-2.058 3.441-1.113.834-.046-5.2-4.061-8.651-4.015-3.45-8.382-4.85-13.735-6.423-3.34-.984-1.823-2.33-.063-3.033l.102-.039Z" fill="#0B4367"/>
  <path d="M99.003 1.481s8.486-4.34 14.467 1.838l1.133 1.295s-3.111-3.007-6.789-3.831c-3.678-.824-8.81.698-8.81.698Z" fill="#9CC6CE"/>
  <path d="M93.131 15.57s.138 1.511 6.5 2.532c6.362 1.02 10.632 2.112 10.724 5.317l-.325.672s-2.369-1.974-5.501-2.204c-3.133-.23-13.206-1.091-11.398-6.316Z" fill="#0B4367"/>
  <path d="M101.047 1.99s2.667 0 2.197 2.694c-.47 2.694-1.712 6.38-6.716 13.806-.97 1.423-1.423 3.838 2.383 5.601 0 0-.744-1.925.28-3.76 1.022-1.836 7.054-13.976 5.546-16.488-1.508-2.512-3.69-1.852-3.69-1.852Z" fill="#2EA5C2"/>
  <path d="M100.417 1.69s.352.97-1.321 3.064C97.423 6.85 97.47 7.422 95.01 9.861c-2.46 2.439-3.248 4.573-1.833 8.149 0 0 .512-3.181 2.275-5.713 1.762-2.53 6.679-9.191 4.965-10.607ZM99.631 1.915s-1.394 1.562-2.91 2.398c-1.514.837-4.317 3.598-4.155 5.943 0 0-.196-1.387 2.924-3.947 4.141-3.39 4.141-4.394 4.141-4.394ZM101.952 1.224s6.291-.834 7.382 3.76c1.091 4.596-1.939 10.007-3.435 13.118-1.496 3.111-4.018 6.476-3.552 7.359 0 0 2.066.441 2.807-.116.742-.558.699-2.32 2.578-4.922s4.121-9.309 3.714-12.652c-.407-3.344-1.903-7.8-9.494-6.547Z" fill="#2EA5C2"/>
  <path d="M112.837 2.64s3.926 3.46 2.694 9.381c-1.232 5.921-5.409 12.165-7.383 13.185 0 0 2.161 1.276 6.2-5.247 4.039-6.522 3.295-13.536-1.511-17.319Z" fill="#2EA5C2"/>
  <path fill-rule="evenodd" clip-rule="evenodd" d="M13.427 3.811a4.474 4.474 0 0 1 1.768 2.437c.739 2.74-.607 4.805-1.907 6.049l-.057.053c1.112.63 2.162 1.758 2.676 3.67m-5.743-1.74h.004a2.895 2.895 0 0 1 .35-.008c.257.008.602.05.96.176.654.229 1.473.763 1.876 2.26.295 1.095-.207 1.961-1.19 2.732a5.95 5.95 0 0 1-3.678 1.224H2.645V5.29l7.045-.017h.011a3.696 3.696 0 0 1 2.226.716c.342.232.596.573.72.967.371 1.411-.246 2.528-1.188 3.428-.469.45-.978.799-1.378 1.038a7.748 7.748 0 0 1-.625.335l-.003.001h.002-.002a1.323 1.323 0 0 0 .711 2.52ZM13.427 3.81a6.341 6.341 0 0 0-3.748-1.182l-8.36.02C.59 2.65 0 3.242 0 3.97v18.015c0 .73.592 1.323 1.322 1.323h7.144a8.596 8.596 0 0 0 5.324-1.782c1.361-1.066 2.815-2.919 2.118-5.507M29.24 4.923c-3.656 0-6.91 3.45-6.91 8.087 0 4.638 3.254 8.088 6.91 8.088 3.657 0 6.912-3.45 6.912-8.088 0-4.638-3.255-8.087-6.911-8.087Zm-9.555 8.087c0-5.756 4.118-10.732 9.556-10.732 5.438 0 9.556 4.976 9.556 10.732 0 5.756-4.118 10.733-9.556 10.733-5.438 0-9.556-4.977-9.556-10.733ZM44.653 2.649c.73 0 1.322.592 1.322 1.322v18.217a1.322 1.322 0 1 1-2.644 0V3.97c0-.73.592-1.322 1.322-1.322ZM67.373 2.278c.73 0 1.323.592 1.323 1.322v18.588a1.322 1.322 0 0 1-2.355.827L54.396 8.107v13.198a1.322 1.322 0 1 1-2.645 0V4.342a1.322 1.322 0 0 1 2.355-.827L66.05 18.422V3.6c0-.73.592-1.322 1.322-1.322ZM89.777 4.827l-.864 1.002.865-1a1.322 1.322 0 0 1-1.727 2.003l-.003-.003.846-.979c-.846.979-.846.98-.845.98l-.003-.002a9.094 9.094 0 0 0-.848-.6 9.593 9.593 0 0 0-2.326-1.057c-1.841-.542-4.206-.556-6.577 1.63-2.356 2.173-3.018 5.58-2.094 8.55.91 2.927 3.318 5.298 7.034 5.516l.013.001a6.577 6.577 0 0 0 5.153-1.962 1.322 1.322 0 1 1 1.891 1.85 9.221 9.221 0 0 1-7.22 2.752c-4.948-.294-8.203-3.532-9.397-7.371-1.18-3.797-.388-8.316 2.827-11.28 3.201-2.952 6.593-2.966 9.116-2.224A12.237 12.237 0 0 1 89.745 4.8l.02.018.008.006.002.002.002.001ZM130.527 2.15c.514 0 .983.298 1.199.765l8.59 18.515a1.322 1.322 0 1 1-2.399 1.113l-7.39-15.928-7.388 15.928a1.323 1.323 0 0 1-2.4-1.113l8.588-18.515a1.323 1.323 0 0 1 1.2-.766Z" fill="#fff"/>
  <path fill-rule="evenodd" clip-rule="evenodd" d="M124.052 16.786c0-.73.592-1.323 1.323-1.323h10.646a1.322 1.322 0 0 1 0 2.645h-10.646a1.323 1.323 0 0 1-1.323-1.322ZM145.677 2.649c.731 0 1.323.592 1.323 1.322v18.015a1.323 1.323 0 0 1-2.645 0V3.971c0-.73.592-1.322 1.322-1.322Z" fill="#fff"/>
</svg>
